<svg width="17" height="17" viewBox="0 0 17 17" fill="none" xmlns="http://www.w3.org/2000/svg">
<path d="M2.22508 0.666748C1.81179 0.666748 1.41542 0.830929 1.12317 1.12317C0.830929 1.41542 0.666748 1.81179 0.666748 2.22508C0.666748 2.63838 0.830929 3.03475 1.12317 3.32699C1.41542 3.61923 1.81179 3.78341 2.22508 3.78341C2.49842 3.7832 2.76689 3.71109 3.00355 3.57433C3.24021 3.43757 3.43674 3.24096 3.5734 3.00425H14.6917V7.67925H11.5751V5.75872C11.5751 5.46887 11.4152 5.20336 11.1581 5.06934C10.9018 4.93533 10.5907 4.9536 10.3531 5.11956L6.45723 7.81773C6.24686 7.96344 6.12091 8.20285 6.12091 8.45841C6.12091 8.71398 6.24686 8.95339 6.45723 9.0991L10.3531 11.7973C10.4855 11.8892 10.6401 11.9373 10.7959 11.9373C10.9198 11.9373 11.0443 11.9067 11.1581 11.8475C11.4152 11.7127 11.5751 11.448 11.5751 11.1581V9.23758H16.2501V1.44591H3.57188C3.43534 1.20942 3.23906 1.01296 3.00269 0.876213C2.76631 0.739465 2.49816 0.667231 2.22508 0.666748ZM0.666748 7.67925V9.23758H2.22508V7.67925H0.666748ZM3.78341 7.67925V9.23758H5.34175V7.67925H3.78341ZM0.666748 10.7959V12.3542H2.22508V10.7959H0.666748ZM14.6917 13.1334C14.2785 13.1334 13.8821 13.2976 13.5898 13.5898C13.2976 13.8821 13.1334 14.2785 13.1334 14.6917C13.1334 15.105 13.2976 15.5014 13.5898 15.7937C13.8821 16.0859 14.2785 16.2501 14.6917 16.2501C15.105 16.2501 15.5014 16.0859 15.7937 15.7937C16.0859 15.5014 16.2501 15.105 16.2501 14.6917C16.2501 14.2785 16.0859 13.8821 15.7937 13.5898C15.5014 13.2976 15.105 13.1334 14.6917 13.1334ZM0.666748 13.9126V15.4709H2.22508V13.9126H0.666748ZM3.78341 13.9126V15.4709H5.34175V13.9126H3.78341ZM6.90008 13.9126V15.4709H8.45841V13.9126H6.90008ZM10.0167 13.9126V15.4709H11.5751V13.9126H10.0167Z" fill="#7F7989"/>
</svg>
