<svg width="20" height="20" viewBox="0 0 20 20" fill="none" xmlns="http://www.w3.org/2000/svg">
<path d="M3.33333 16.6668C2.875 16.6668 2.48264 16.5036 2.15625 16.1772C1.82986 15.8509 1.66666 15.4585 1.66666 15.0002V5.00016C1.66666 4.54183 1.82986 4.14947 2.15625 3.82308C2.48264 3.49669 2.875 3.3335 3.33333 3.3335H16.6667C17.125 3.3335 17.5174 3.49669 17.8437 3.82308C18.1701 4.14947 18.3333 4.54183 18.3333 5.00016V15.0002C18.3333 15.4585 18.1701 15.8509 17.8437 16.1772C17.5174 16.5036 17.125 16.6668 16.6667 16.6668H3.33333ZM10 10.8335L3.33333 6.66683V15.0002H16.6667V6.66683L10 10.8335ZM10 9.16683L16.6667 5.00016H3.33333L10 9.16683ZM3.33333 6.66683V5.00016V15.0002V6.66683Z" fill="#ADABB0"/>
</svg>
