<svg width="20" height="20" viewBox="0 0 20 20" fill="none" xmlns="http://www.w3.org/2000/svg">
<g clip-path="url(#clip0_1193_9117)">
<path d="M22.5368 10.9001L13.1 1.46328C12.8105 1.17381 12.4053 1.00012 12 1.00012C11.5947 1.00012 11.1895 1.17381 10.9 1.46328L8.87368 3.4896L11.2474 5.86328C11.4789 5.74749 11.7105 5.6896 12 5.6896C12.9842 5.6896 13.7368 6.44223 13.7368 7.42644C13.7368 7.71591 13.6789 7.94749 13.5632 8.17907L15.8789 10.4949C16.1105 10.3791 16.3421 10.3212 16.6316 10.3212C17.6158 10.3212 18.3684 11.0738 18.3684 12.058C18.3684 13.0422 17.6158 13.7949 16.6316 13.7949C15.6474 13.7949 14.8947 13.0422 14.8947 12.058C14.8947 11.7685 14.9526 11.537 15.0684 11.3054L12.7526 8.9896C12.6947 8.9896 12.6368 9.04749 12.5789 9.04749V15.0685C13.2737 15.3001 13.7368 15.937 13.7368 16.6896C13.7368 17.6738 12.9842 18.4264 12 18.4264C11.0158 18.4264 10.2632 17.6738 10.2632 16.6896C10.2632 15.937 10.7263 15.3001 11.4211 15.0685V8.9896C10.7263 8.75802 10.2632 8.12117 10.2632 7.36854C10.2632 7.07907 10.3211 6.84749 10.4368 6.61591L8.06316 4.24223L1.46316 10.9001C1.17368 11.1896 1 11.5949 1 12.0001C1 12.4054 1.17368 12.8106 1.46316 13.1001L10.9 22.537C11.1895 22.8264 11.5947 23.0001 12 23.0001C12.4053 23.0001 12.8105 22.8264 13.1 22.537L22.5368 13.1001C22.8263 12.8106 23 12.4054 23 12.0001C23 11.5949 22.8263 11.1896 22.5368 10.9001Z" fill="#F4511E"/>
</g>
<defs>
<clipPath id="clip0_1193_9117">
<rect width="20" height="20" fill="white"/>
</clipPath>
</defs>
</svg>
