<svg width="20" height="20" viewBox="0 0 20 20" fill="none" xmlns="http://www.w3.org/2000/svg">
<path d="M14.6399 15.0141C13.7192 15.0141 12.9659 14.2633 12.9659 13.3457C12.9659 12.4281 13.7192 11.6773 14.6399 11.6773C15.5606 11.6773 16.3139 12.4281 16.3139 13.3457C16.3139 14.2633 15.5606 15.0141 14.6399 15.0141Z" fill="#37474F"/>
<path d="M14.6396 17.5167C13.3842 17.5167 12.1705 16.9328 11.3754 15.9735L12.6727 14.9307C13.1331 15.5146 13.8863 15.89 14.6396 15.89C16.0207 15.89 17.1506 14.7639 17.1506 13.3874C17.1506 12.011 16.0207 10.8848 14.6396 10.8848C14.2211 10.8848 13.8026 11.0099 13.426 11.1767L12.7146 11.5939L9.74322 6.25491L11.208 5.46241L13.426 9.3832C13.8445 9.25806 14.263 9.17464 14.6815 9.17464C16.9832 9.17464 18.8665 11.0516 18.8665 13.3457C18.8665 15.6398 16.9414 17.5167 14.6396 17.5167Z" fill="#37474F"/>
<path d="M5.85145 17.5167C3.54971 17.5167 1.66647 15.6398 1.66647 13.3457C1.66647 11.427 2.96382 9.80029 4.80521 9.29977L5.2237 10.9265C4.13561 11.2185 3.34046 12.2195 3.34046 13.3457C3.34046 14.7221 4.47041 15.8483 5.85145 15.8483C7.23249 15.8483 8.36244 14.7221 8.36244 13.3457V12.5115H13.1917L12.9659 13.3457L13.1965 14.1881L9.95273 14.1799C9.57608 16.0986 7.86024 17.5167 5.85145 17.5167Z" fill="#37474F"/>
<path d="M5.85145 15.0141C4.93076 15.0141 4.17746 14.2633 4.17746 13.3457C4.17746 12.4281 4.93076 11.6773 5.85145 11.6773C6.77215 11.6773 7.52544 12.4281 7.52544 13.3457C7.52544 14.2633 6.77215 15.0141 5.85145 15.0141Z" fill="#E91E63"/>
<path d="M10.4548 7.50622C9.5341 7.50622 8.78081 6.75543 8.78081 5.8378C8.78081 4.92017 9.5341 4.16938 10.4548 4.16938C11.3755 4.16938 12.1288 4.92017 12.1288 5.8378C12.1288 6.75543 11.3755 7.50622 10.4548 7.50622Z" fill="#37474F"/>
<path d="M6.56277 13.7628L5.13988 12.9286L7.60901 8.88267C6.77202 8.09017 6.26982 7.0057 6.26982 5.8378C6.26982 3.54372 8.15306 1.66675 10.4548 1.66675C12.7565 1.66675 14.6398 3.54372 14.6398 5.8378C14.6398 6.2132 14.5979 6.54688 14.5142 6.88056L12.8821 6.46346C12.9239 6.25491 12.9658 6.04635 12.9658 5.8378C12.9658 4.46135 11.8358 3.33517 10.4548 3.33517C9.07376 3.33517 7.94381 4.46135 7.94381 5.8378C7.94381 6.71372 8.40416 7.50622 9.15745 7.96504L9.8689 8.38214L6.56277 13.7628Z" fill="#E91E63"/>
<path d="M13.3843 12.5115H12.9658V14.1799H13.3843V12.5115Z" fill="#37474F"/>
</svg>
